<svg width="748" height="748" viewBox="0 0 748 748" fill="none" xmlns="http://www.w3.org/2000/svg">
<g clip-path="url(#clip0_1_16)">
<rect x="31" y="31" width="686" height="686" rx="99" fill="#F67C01"/>
<path d="M486.5 635.164C472.633 635.164 463.551 627.742 459.254 612.898C454.762 596.883 450.66 574.129 446.949 544.637C443.434 516.316 441.676 493.074 441.676 474.91C441.676 469.832 441.871 462.117 442.262 451.766C442.848 441.414 443.141 433.699 443.141 428.621C443.141 391.902 433.961 373.543 415.602 373.543C390.797 373.543 368.629 384.773 349.098 407.234C339.137 418.758 325.465 440.73 308.082 473.152C308.082 547.566 304.957 591.609 298.707 605.281C293.238 617.391 284.742 623.445 273.219 623.445C265.211 623.445 258.18 620.711 252.125 615.242C246.07 609.773 243.043 603.133 243.043 595.32C243.043 592.586 243.922 588.289 245.68 582.43C247.242 577.547 248.316 563.289 248.902 539.656L249.781 496.297L250.66 280.965C252.027 256.746 252.711 240.438 252.711 232.039C252.711 222.078 251.734 212.703 249.781 203.914C248.023 194.93 247.145 185.652 247.145 176.082C247.145 167.879 249.977 161.141 255.641 155.867C261.305 150.398 268.238 147.664 276.441 147.664C292.457 147.664 301.832 156.258 304.566 173.445C307.691 192.391 309.254 209.48 309.254 224.715C309.254 245.223 308.57 266.609 307.203 288.875C306.031 310.164 305.543 331.551 305.738 353.035L306.031 378.816C322.047 357.332 339.137 341.316 357.301 330.77C375.66 320.027 395.094 314.656 415.602 314.656C448.023 314.656 470.289 325.203 482.398 346.297C490.992 361.141 495.875 386.141 497.047 421.297L499.391 477.254L505.25 538.191C507.984 561.043 511.305 581.16 515.211 598.543C515.992 601.863 516.383 604.695 516.383 607.039C516.383 615.047 513.453 621.688 507.594 626.961C501.734 632.43 494.703 635.164 486.5 635.164Z" fill="white"/>
</g>
<defs>
<clipPath id="clip0_1_16">
<rect width="748" height="748" fill="white"/>
</clipPath>
</defs>
</svg>
